<svg width="267" height="31" viewBox="0 0 267 31" fill="none" xmlns="http://www.w3.org/2000/svg">
<path d="M12.6752 0H21.2868C22.2392 0 22.8345 0.414338 23.0726 1.24301L31.9223 25.2746C31.9488 25.3499 31.962 25.4755 31.962 25.6513C31.962 25.8019 31.8694 25.9652 31.6842 26.1409C31.5255 26.2916 31.327 26.367 31.0889 26.367H23.7473C22.9536 26.367 22.4377 26.0531 22.1996 25.4253L21.2471 22.9392H12.7149L10.2147 26.367C11.0084 26.367 9.97664 26.9947 10.2147 26.367H2.87306C2.63496 26.367 2.4233 26.2916 2.23811 26.1409C2.07937 25.9652 2 25.8019 2 25.6513C2 25.4755 2.01323 25.3499 2.03968 25.2746L10.8894 1.24301C11.1275 0.414338 11.7228 0 12.6752 0Z" fill="white"/>
<path d="M36.6907 18.3062H40.6592C41.982 18.3062 42.7095 18.1304 42.8418 17.7789L33.5953 1.16768C33.5688 1.09235 33.5556 1.00445 33.5556 0.904009C33.6614 0.301336 33.9921 0 34.5477 0H42.8418C43.3974 0 43.8207 0.301336 44.1117 0.904009L47.8024 8.32442L50.7391 0.904009C51.0037 0.301336 51.4534 0 52.0884 0H60.3031C60.5412 0 60.7529 0.0878902 60.9381 0.263671C61.1233 0.414338 61.2159 0.590118 61.2159 0.79101C61.2159 0.991901 61.2027 1.11746 61.1762 1.16768L53.2789 18.6829C51.9032 21.7465 50.4481 23.793 48.9136 24.8226C47.4056 25.8522 44.9848 26.367 41.6513 26.367H36.6907C36.3997 26.367 36.1483 26.2665 35.9367 26.0656C35.725 25.8647 35.6192 25.6262 35.6192 25.3499V19.3232C35.6192 19.047 35.725 18.8084 35.9367 18.6075C36.1483 18.4066 36.3997 18.3062 36.6907 18.3062Z" fill="white"/>
<path d="M68.4599 0H90.2072C90.4982 0 90.7495 0.100446 90.9612 0.301337C91.1728 0.502229 91.2786 0.740787 91.2786 1.01701V18.0802H92.9851C93.2761 18.0802 93.5274 18.1806 93.7391 18.3815C93.9508 18.5824 94.0566 18.821 94.0566 19.0972V29.983C94.0566 30.2592 93.9508 30.4978 93.7391 30.6987C93.5274 30.8996 93.2761 31 92.9851 31H85.2069C84.9158 31 84.6645 30.8996 84.4529 30.6987C84.2412 30.4978 84.1354 30.2592 84.1354 29.983V26.367H73.3411V29.983C73.3411 30.2592 73.2353 30.4978 73.0237 30.6987C72.812 30.8996 72.5607 31 72.2696 31H64.4914C64.2004 31 63.9491 30.8996 63.7374 30.6987C63.5258 30.5229 63.4199 30.2843 63.4199 29.983V19.0972C63.4199 18.821 63.5258 18.5824 63.7374 18.3815C63.9491 18.1806 64.2004 18.0802 64.4914 18.0802H64.6502C65.4439 18.0802 66.092 17.8291 66.5947 17.3269C67.1238 16.8246 67.3884 16.109 67.3884 15.1798V1.01701C67.3884 0.740787 67.4942 0.502229 67.7059 0.301337C67.9175 0.100446 68.1689 0 68.4599 0ZM81.3575 8.28676H77.3096V15.2175C77.3096 16.6237 77.1905 17.578 76.9524 18.0802H81.3575V8.28676Z" fill="white"/>
<path d="M99.6946 0H106.878C107.169 0 107.42 0.100446 107.632 0.301337C107.843 0.502229 107.949 0.740787 107.949 1.01701V11.3001L114.656 0.866343C115 0.288781 115.542 0 116.283 0H122.553C122.844 0 123.095 0.100446 123.307 0.301337C123.519 0.502229 123.625 0.740787 123.625 1.01701V25.3499C123.625 25.6262 123.519 25.8647 123.307 26.0656C123.095 26.2665 122.844 26.367 122.553 26.367H115.37C115.079 26.367 114.828 26.2665 114.616 26.0656C114.404 25.8647 114.299 25.6262 114.299 25.3499V15.8955L107.592 25.5006C107.195 26.0782 106.653 26.367 105.965 26.367H99.6946C99.4036 26.367 99.1522 26.2665 98.9406 26.0656C98.7289 25.8647 98.6231 25.6262 98.6231 25.3499V1.01701C98.6231 0.740787 98.7289 0.502229 98.9406 0.301337C99.1522 0.100446 99.4036 0 99.6946 0Z" fill="white"/>
<path d="M128.457 0H151.712C152.003 0 152.254 0.100446 152.466 0.301337C152.678 0.502229 152.784 0.740787 152.784 1.01701V7.08141C152.784 7.35764 152.678 7.59619 152.466 7.79708C152.254 7.99798 152.003 8.09842 151.712 8.09842H145.124V25.3499C145.124 25.6262 145.019 25.8647 144.807 26.0656C144.595 26.2665 144.344 26.367 144.053 26.367H136.116C135.825 26.367 135.574 26.2665 135.362 26.0656C135.15 25.8647 135.044 25.6262 135.044 25.3499V8.09842H128.457C128.166 8.09842 127.914 7.99798 127.703 7.79708C127.491 7.59619 127.385 7.35764 127.385 7.08141V1.01701C127.385 0.740787 127.491 0.502229 127.703 0.301337C127.914 0.100446 128.166 0 128.457 0Z" fill="white"/>
<path d="M166.086 19.0219H178.309C178.6 19.0219 178.851 19.1223 179.063 19.3232C179.274 19.5241 179.38 19.7627 179.38 20.0389V25.3499C179.38 25.6262 179.274 25.8647 179.063 26.0656C178.851 26.2665 178.6 26.367 178.309 26.367H157.633C157.342 26.367 157.09 26.2665 156.879 26.0656C156.667 25.8647 156.561 25.6262 156.561 25.3499V1.01701C156.561 0.740787 156.667 0.502229 156.879 0.301337C157.09 0.100446 157.342 0 157.633 0H177.991C178.282 0 178.533 0.100446 178.745 0.301337C178.957 0.502229 179.063 0.740787 179.063 1.01701V6.32807C179.063 6.60429 178.957 6.84285 178.745 7.04374C178.533 7.24464 178.282 7.34508 177.991 7.34508H166.086V9.7181H177.118C177.409 9.7181 177.66 9.81855 177.872 10.0194C178.084 10.2203 178.19 10.4589 178.19 10.7351V15.6318C178.19 15.9081 178.084 16.1466 177.872 16.3475C177.66 16.5484 177.409 16.6488 177.118 16.6488H166.086V19.0219Z" fill="white"/>
<path d="M185.226 0H197.052C200.862 0 203.838 0.778453 205.981 2.33536C208.124 3.89226 209.196 6.18996 209.196 9.22843C209.196 12.2669 208.124 14.5144 205.981 15.9708C203.865 17.4273 200.888 18.1555 197.052 18.1555H194.473V25.3499C194.473 25.6262 194.367 25.8647 194.155 26.0656C193.944 26.2665 193.692 26.367 193.401 26.367H185.226C184.935 26.367 184.684 26.2665 184.472 26.0656C184.26 25.8647 184.155 25.6262 184.155 25.3499V1.01701C184.155 0.740787 184.26 0.502229 184.472 0.301337C184.684 0.100446 184.935 0 185.226 0ZM194.274 7.00608V11.1871H197.052C197.528 11.1871 197.952 11.0239 198.322 10.6974C198.692 10.3459 198.878 9.85622 198.878 9.22843C198.878 8.60065 198.732 8.07331 198.441 7.64642C198.15 7.21952 197.687 7.00608 197.052 7.00608H194.274Z" fill="white"/>
<path d="M213.633 0H220.816C221.107 0 221.359 0.100446 221.57 0.301337C221.782 0.502229 221.888 0.740787 221.888 1.01701V11.3001L228.594 0.866343C228.938 0.288781 229.481 0 230.222 0H236.492C236.783 0 237.034 0.100446 237.246 0.301337C237.457 0.502229 237.563 0.740787 237.563 1.01701V25.3499C237.563 25.6262 237.457 25.8647 237.246 26.0656C237.034 26.2665 236.783 26.367 236.492 26.367H229.309C229.018 26.367 228.766 26.2665 228.555 26.0656C228.343 25.8647 228.237 25.6262 228.237 25.3499V15.8955L221.531 25.5006C221.134 26.0782 220.591 26.367 219.903 26.367H213.633C213.342 26.367 213.091 26.2665 212.879 26.0656C212.668 25.8647 212.562 25.6262 212.562 25.3499V1.01701C212.562 0.740787 212.668 0.502229 212.879 0.301337C213.091 0.100446 213.342 0 213.633 0Z" fill="white"/>
<path d="M246.324 16.5358C243.467 14.8032 242.038 12.4301 242.038 9.41677C242.038 6.37829 243.11 4.05549 245.253 2.44836C247.396 0.81612 250.372 0 254.182 0H265.929C266.22 0 266.471 0.100446 266.683 0.301337C266.894 0.502229 267 0.740787 267 1.01701V25.3499C267 25.6262 266.894 25.8647 266.683 26.0656C266.471 26.2665 266.22 26.367 265.929 26.367H258.15C257.859 26.367 257.608 26.2665 257.396 26.0656C257.185 25.8647 257.079 25.6262 257.079 25.3499V18.1555H255.452L252.039 25.3499C251.721 26.0279 251.153 26.367 250.332 26.367H242.197C241.959 26.367 241.747 26.2916 241.562 26.1409C241.403 25.9652 241.324 25.7894 241.324 25.6136C241.324 25.4378 241.364 25.2746 241.443 25.1239L246.324 16.5358ZM257.079 10.9988V7.00608H254.182C253.573 7.00608 253.11 7.21952 252.793 7.64642C252.502 8.0482 252.356 8.52531 252.356 9.07776C252.356 9.63022 252.515 10.0948 252.833 10.4714C253.15 10.823 253.6 10.9988 254.182 10.9988H257.079Z" fill="white"/>
<path d="M21 12.2683L5.31373 1L0 22L21 12.2683Z" fill="#EC8F32"/>
<path d="M21 12.5L8.2 12L0 22L21 12.5Z" fill="#DA6D00"/>
<path d="M21 12.5L7.66667 12.4783L5.5 1.00001L21 12.5Z" fill="#EC8117"/>
</svg>
